{
  "accessors": [
    {
      "bufferView": 2,
      "componentType": 5126,
      "count": 784,
      "max": [
        1.7414404153823853,
        1.6864441633224487,
        3.3268446922302246
      ],
      "min": [
        -1.7414404153823853,
        0.0,
        -3.8699772357940674
      ],
      "type": "VEC3"
    },
    {
      "bufferView": 2,
      "byteOffset": 9408,
      "componentType": 5126,
      "count": 784,
      "max": [
        1.0,
        1.0,
        1.0
      ],
      "min": [
        -1.0,
        -1.0,
        -1.0
      ],
      "type": "VEC3"
    },
    {
      "bufferView": 1,
      "componentType": 5126,
      "count": 784,
      "max": [
        0.9951220750808716,
        0.995121955871582
      ],
      "min": [
        0.004877905827015638,
        0.011601746082305908
      ],
      "type": "VEC2"
    },
    {
      "bufferView": 0,
      "componentType": 5125,
      "count": 1722,
      "type": "SCALAR"
    },
    {
      "bufferView": 2,
      "byteOffset": 18816,
      "componentType": 5126,
      "count": 1029,
      "max": [
        1.541034460067749,
        1.3916714191436768,
        1.7098052501678467
      ],
      "min": [
        -1.541034460067749,
        0.0,
        -2.8111472129821777
      ],
      "type": "VEC3"
    },
    {
      "bufferView": 2,
      "byteOffset": 31164,
      "componentType": 5126,
      "count": 1029,
      "max": [
        1.0,
        1.0,
        1.0
      ],
      "min": [
        -1.0,
        -1.0,
        -1.0
      ],
      "type": "VEC3"
    },
    {
      "bufferView": 1,
      "byteOffset": 6272,
      "componentType": 5126,
      "count": 1029,
      "max": [
        0.9749506711959839,
        0.994854748249054
      ],
      "min": [
        0.004955071955919266,
        0.038496971130371094
      ],
      "type": "VEC2"
    },
    {
      "bufferView": 0,
      "byteOffset": 6888,
      "componentType": 5125,
      "count": 2388,
      "type": "SCALAR"
    },
    {
      "bufferView": 2,
      "byteOffset": 43512,
      "componentType": 5126,
      "count": 222,
      "max": [
        0.18708889186382294,
        0.3131248354911804,
        4.641140460968018
      ],
      "min": [
        -0.18708883225917816,
        -0.18457406759262085,
        -2.9802322387695313e-08
      ],
      "type": "VEC3"
    },
    {
      "bufferView": 2,
      "byteOffset": 46176,
      "componentType": 5126,
      "count": 222,
      "max": [
        1.0,
        1.0,
        1.0
      ],
      "min": [
        -1.0,
        -1.0,
        -1.0
      ],
      "type": "VEC3"
    },
    {
      "bufferView": 1,
      "byteOffset": 14504,
      "componentType": 5126,
      "count": 222,
      "max": [
        0.9530982971191406,
        0.9144856333732605
      ],
      "min": [
        0.006266637239605188,
        0.02168750762939453
      ],
      "type": "VEC2"
    },
    {
      "bufferView": 0,
      "byteOffset": 16440,
      "componentType": 5125,
      "count": 570,
      "type": "SCALAR"
    }
  ],
  "asset": {
    "extras": {
      "author": "Waroxed (https://sketchfab.com/Waroxed)",
      "license": "CC-BY-4.0 (http://creativecommons.org/licenses/by/4.0/)",
      "source": "https://sketchfab.com/3d-models/amx-56-low-poly-ee60c5f42e0847d79143b38f5faced57",
      "title": "AMX-56 Low Poly"
    },
    "generator": "Sketchfab-16.68.0",
    "version": "2.0"
  },
  "bufferViews": [
    {
      "buffer": 0,
      "byteLength": 18720,
      "name": "floatBufferViews",
      "target": 34963
    },
    {
      "buffer": 0,
      "byteLength": 16280,
      "byteOffset": 18720,
      "byteStride": 8,
      "name": "floatBufferViews",
      "target": 34962
    },
    {
      "buffer": 0,
      "byteLength": 48840,
      "byteOffset": 35000,
      "byteStride": 12,
      "name": "floatBufferViews",
      "target": 34962
    }
  ],
  "buffers": [
    {
      "byteLength": 83840,
      "uri": "scene.bin"
    }
  ],
  "extensionsUsed": [
    "KHR_materials_specular"
  ],
  "images": [
    {
      "uri": "textures/amx56_baseColor.png"
    },
    {
      "uri": "textures/amx56_specularf0.png"
    }
  ],
  "materials": [
    {
      "doubleSided": true,
      "extensions": {
        "KHR_materials_specular": {
          "specularColorFactor": [
            1.0,
            1.0,
            1.0
          ],
          "specularFactor": 1.0,
          "specularTexture": {
            "index": 1
          }
        }
      },
      "name": "amx56",
      "pbrMetallicRoughness": {
        "baseColorTexture": {
          "index": 0
        },
        "metallicFactor": 0.0
      }
    }
  ],
  "meshes": [
    {
      "name": "Object_0",
      "primitives": [
        {
          "attributes": {
            "NORMAL": 1,
            "POSITION": 0,
            "TEXCOORD_0": 2
          },
          "indices": 3,
          "material": 0,
          "mode": 4
        }
      ]
    },
    {
      "name": "Object_1",
      "primitives": [
        {
          "attributes": {
            "NORMAL": 5,
            "POSITION": 4,
            "TEXCOORD_0": 6
          },
          "indices": 7,
          "material": 0,
          "mode": 4
        }
      ]
    },
    {
      "name": "Object_2",
      "primitives": [
        {
          "attributes": {
            "NORMAL": 9,
            "POSITION": 8,
            "TEXCOORD_0": 10
          },
          "indices": 11,
          "material": 0,
          "mode": 4
        }
      ]
    }
  ],
  "nodes": [
    {
      "children": [
        1
      ],
      "matrix": [
        1.0,
        0.0,
        0.0,
        0.0,
        0.0,
        2.220446049250313e-16,
        -1.0,
        0.0,
        0.0,
        1.0,
        2.220446049250313e-16,
        0.0,
        0.0,
        0.0,
        0.0,
        1.0
      ],
      "name": "Sketchfab_model"
    },
    {
      "children": [
        2
      ],
      "name": "root"
    },
    {
      "children": [
        3
      ],
      "matrix": [
        1.0,
        0.0,
        0.0,
        0.0,
        0.0,
        2.220446049250313e-16,
        1.0,
        0.0,
        0.0,
        -1.0,
        2.220446049250313e-16,
        0.0,
        0.0,
        0.0,
        0.0,
        1.0
      ],
      "name": "GLTF_SceneRootNode"
    },
    {
      "children": [
        4,
        5
      ],
      "name": "hull_amx56_lowpoly_2"
    },
    {
      "mesh": 0,
      "name": "Object_4"
    },
    {
      "children": [
        6,
        7
      ],
      "matrix": [
        1.0,
        0.0,
        0.0,
        0.0,
        0.0,
        1.0,
        0.0,
        0.0,
        0.0,
        0.0,
        1.0,
        0.0,
        0.0,
        1.5662469863891602,
        0.24309241771697998,
        1.0
      ],
      "name": "turret_amx56_lowpoly_1"
    },
    {
      "mesh": 1,
      "name": "Object_6"
    },
    {
      "children": [
        8
      ],
      "matrix": [
        1.0,
        0.0,
        0.0,
        0.0,
        0.0,
        1.0,
        0.0,
        0.0,
        0.0,
        0.0,
        1.0,
        0.0,
        0.0,
        0.35849618911743164,
        1.0298818349838257,
        1.0
      ],
      "name": "cannon_amx56_lowpoly_0"
    },
    {
      "mesh": 2,
      "name": "Object_8"
    }
  ],
  "samplers": [
    {
      "magFilter": 9729,
      "minFilter": 9987,
      "wrapS": 10497,
      "wrapT": 10497
    }
  ],
  "scene": 0,
  "scenes": [
    {
      "name": "Sketchfab_Scene",
      "nodes": [
        0
      ]
    }
  ],
  "textures": [
    {
      "sampler": 0,
      "source": 0
    },
    {
      "sampler": 0,
      "source": 1
    }
  ]
}
