<svg id="visual" viewBox="0 0 900 600" width="900" height="600" xmlns="http://www.w3.org/2000/svg" xmlns:xlink="http://www.w3.org/1999/xlink" version="1.1"><rect x="0" y="0" width="900" height="600" fill="#04471c"></rect><defs><linearGradient id="grad1_0" x1="33.3%" y1="0%" x2="100%" y2="100%"><stop offset="20%" stop-color="#058c42" stop-opacity="1"></stop><stop offset="80%" stop-color="#058c42" stop-opacity="1"></stop></linearGradient></defs><defs><linearGradient id="grad1_1" x1="33.3%" y1="0%" x2="100%" y2="100%"><stop offset="20%" stop-color="#058c42" stop-opacity="1"></stop><stop offset="80%" stop-color="#06823c" stop-opacity="1"></stop></linearGradient></defs><defs><linearGradient id="grad1_2" x1="33.3%" y1="0%" x2="100%" y2="100%"><stop offset="20%" stop-color="#067736" stop-opacity="1"></stop><stop offset="80%" stop-color="#06823c" stop-opacity="1"></stop></linearGradient></defs><defs><linearGradient id="grad1_3" x1="33.3%" y1="0%" x2="100%" y2="100%"><stop offset="20%" stop-color="#067736" stop-opacity="1"></stop><stop offset="80%" stop-color="#066d31" stop-opacity="1"></stop></linearGradient></defs><defs><linearGradient id="grad1_4" x1="33.3%" y1="0%" x2="100%" y2="100%"><stop offset="20%" stop-color="#06642b" stop-opacity="1"></stop><stop offset="80%" stop-color="#066d31" stop-opacity="1"></stop></linearGradient></defs><defs><linearGradient id="grad1_5" x1="33.3%" y1="0%" x2="100%" y2="100%"><stop offset="20%" stop-color="#06642b" stop-opacity="1"></stop><stop offset="80%" stop-color="#065a26" stop-opacity="1"></stop></linearGradient></defs><defs><linearGradient id="grad1_6" x1="33.3%" y1="0%" x2="100%" y2="100%"><stop offset="20%" stop-color="#055021" stop-opacity="1"></stop><stop offset="80%" stop-color="#065a26" stop-opacity="1"></stop></linearGradient></defs><defs><linearGradient id="grad1_7" x1="33.3%" y1="0%" x2="100%" y2="100%"><stop offset="20%" stop-color="#055021" stop-opacity="1"></stop><stop offset="80%" stop-color="#04471c" stop-opacity="1"></stop></linearGradient></defs><defs><linearGradient id="grad2_0" x1="0%" y1="0%" x2="66.7%" y2="100%"><stop offset="20%" stop-color="#058c42" stop-opacity="1"></stop><stop offset="80%" stop-color="#058c42" stop-opacity="1"></stop></linearGradient></defs><defs><linearGradient id="grad2_1" x1="0%" y1="0%" x2="66.7%" y2="100%"><stop offset="20%" stop-color="#06823c" stop-opacity="1"></stop><stop offset="80%" stop-color="#058c42" stop-opacity="1"></stop></linearGradient></defs><defs><linearGradient id="grad2_2" x1="0%" y1="0%" x2="66.7%" y2="100%"><stop offset="20%" stop-color="#06823c" stop-opacity="1"></stop><stop offset="80%" stop-color="#067736" stop-opacity="1"></stop></linearGradient></defs><defs><linearGradient id="grad2_3" x1="0%" y1="0%" x2="66.7%" y2="100%"><stop offset="20%" stop-color="#066d31" stop-opacity="1"></stop><stop offset="80%" stop-color="#067736" stop-opacity="1"></stop></linearGradient></defs><defs><linearGradient id="grad2_4" x1="0%" y1="0%" x2="66.7%" y2="100%"><stop offset="20%" stop-color="#066d31" stop-opacity="1"></stop><stop offset="80%" stop-color="#06642b" stop-opacity="1"></stop></linearGradient></defs><defs><linearGradient id="grad2_5" x1="0%" y1="0%" x2="66.7%" y2="100%"><stop offset="20%" stop-color="#065a26" stop-opacity="1"></stop><stop offset="80%" stop-color="#06642b" stop-opacity="1"></stop></linearGradient></defs><defs><linearGradient id="grad2_6" x1="0%" y1="0%" x2="66.7%" y2="100%"><stop offset="20%" stop-color="#065a26" stop-opacity="1"></stop><stop offset="80%" stop-color="#055021" stop-opacity="1"></stop></linearGradient></defs><defs><linearGradient id="grad2_7" x1="0%" y1="0%" x2="66.7%" y2="100%"><stop offset="20%" stop-color="#04471c" stop-opacity="1"></stop><stop offset="80%" stop-color="#055021" stop-opacity="1"></stop></linearGradient></defs><g transform="translate(900, 0)"><path d="M0 432.7C-22.9 432.8 -45.9 432.9 -67.7 427.3C-89.5 421.8 -110.2 410.7 -129.8 399.4C-149.4 388.2 -167.8 376.9 -186.6 366.2C-205.4 355.5 -224.4 345.5 -242.8 334.1C-261.1 322.8 -278.6 310.2 -297 297C-315.3 283.8 -334.4 270 -345.5 251C-356.5 232 -359.4 207.8 -366.2 186.6C-373 165.4 -383.6 147.3 -393.7 127.9C-403.8 108.6 -413.4 88 -419.8 66.5C-426.2 45 -429.4 22.5 -432.7 0L0 0Z" fill="#044c1e"></path><path d="M0 378.6C-20.1 378.7 -40.1 378.8 -59.2 373.9C-78.3 369.1 -96.4 359.3 -113.6 349.5C-130.7 339.7 -146.8 329.8 -163.3 320.4C-179.7 311.1 -196.4 302.3 -212.4 292.4C-228.4 282.4 -243.8 271.4 -259.9 259.9C-275.9 248.3 -292.6 236.2 -302.3 219.6C-311.9 203 -314.5 181.8 -320.4 163.3C-326.4 144.7 -335.7 128.9 -344.5 111.9C-353.4 95 -361.7 77 -367.3 58.2C-372.9 39.3 -375.7 19.7 -378.6 0L0 0Z" fill="#055524"></path><path d="M0 324.5C-17.2 324.6 -34.4 324.6 -50.8 320.5C-67.1 316.4 -82.7 308 -97.3 299.6C-112 291.2 -125.9 282.7 -139.9 274.7C-154 266.6 -168.3 259.1 -182.1 250.6C-195.8 242.1 -209 232.6 -222.7 222.7C-236.5 212.8 -250.8 202.5 -259.1 188.2C-267.4 174 -269.6 155.8 -274.7 139.9C-279.7 124.1 -287.7 110.5 -295.3 95.9C-302.9 81.4 -310 66 -314.8 49.9C-319.6 33.7 -322.1 16.9 -324.5 0L0 0Z" fill="#065f29"></path><path d="M0 270.4C-14.3 270.5 -28.7 270.5 -42.3 267.1C-55.9 263.6 -68.9 256.7 -81.1 249.7C-93.4 242.6 -104.9 235.6 -116.6 228.9C-128.3 222.2 -140.3 215.9 -151.7 208.8C-163.2 201.7 -174.2 193.9 -185.6 185.6C-197.1 177.4 -209 168.7 -215.9 156.9C-222.8 145 -224.6 129.9 -228.9 116.6C-233.1 103.4 -239.8 92.1 -246.1 80C-252.4 67.9 -258.4 55 -262.4 41.6C-266.4 28.1 -268.4 14 -270.4 0L0 0Z" fill="#06682e"></path><path d="M0 216.3C-11.5 216.4 -22.9 216.4 -33.8 213.7C-44.8 210.9 -55.1 205.3 -64.9 199.7C-74.7 194.1 -83.9 188.4 -93.3 183.1C-102.7 177.8 -112.2 172.7 -121.4 167.1C-130.5 161.4 -139.3 155.1 -148.5 148.5C-157.7 141.9 -167.2 135 -172.7 125.5C-178.2 116 -179.7 103.9 -183.1 93.3C-186.5 82.7 -191.8 73.6 -196.9 64C-201.9 54.3 -206.7 44 -209.9 33.2C-213.1 22.5 -214.7 11.2 -216.3 0L0 0Z" fill="#067234"></path><path d="M0 162.2C-8.6 162.3 -17.2 162.3 -25.4 160.3C-33.6 158.2 -41.3 154 -48.7 149.8C-56 145.6 -62.9 141.3 -70 137.3C-77 133.3 -84.2 129.5 -91 125.3C-97.9 121 -104.5 116.3 -111.4 111.4C-118.2 106.4 -125.4 101.2 -129.5 94.1C-133.7 87 -134.8 77.9 -137.3 70C-139.9 62 -143.9 55.2 -147.7 48C-151.4 40.7 -155 33 -157.4 24.9C-159.8 16.9 -161 8.4 -162.2 0L0 0Z" fill="#067d39"></path><path d="M0 108.2C-5.7 108.2 -11.5 108.2 -16.9 106.8C-22.4 105.5 -27.6 102.7 -32.4 99.9C-37.3 97.1 -42 94.2 -46.6 91.6C-51.3 88.9 -56.1 86.4 -60.7 83.5C-65.3 80.7 -69.7 77.5 -74.2 74.2C-78.8 70.9 -83.6 67.5 -86.4 62.7C-89.1 58 -89.9 51.9 -91.6 46.6C-93.2 41.4 -95.9 36.8 -98.4 32C-101 27.1 -103.3 22 -104.9 16.6C-106.5 11.2 -107.4 5.6 -108.2 0L0 0Z" fill="#06873f"></path><path d="M0 54.1C-2.9 54.1 -5.7 54.1 -8.5 53.4C-11.2 52.7 -13.8 51.3 -16.2 49.9C-18.7 48.5 -21 47.1 -23.3 45.8C-25.7 44.4 -28.1 43.2 -30.3 41.8C-32.6 40.3 -34.8 38.8 -37.1 37.1C-39.4 35.5 -41.8 33.7 -43.2 31.4C-44.6 29 -44.9 26 -45.8 23.3C-46.6 20.7 -48 18.4 -49.2 16C-50.5 13.6 -51.7 11 -52.5 8.3C-53.3 5.6 -53.7 2.8 -54.1 0L0 0Z" fill="#058c42"></path></g><g transform="translate(0, 600)"><path d="M0 -432.7C21.4 -424.3 42.7 -416 65.5 -413.8C88.4 -411.7 112.7 -415.6 132.3 -407.1C151.8 -398.5 166.7 -377.5 187 -367.1C207.4 -356.7 233.2 -357.1 251.6 -346.3C270 -335.4 281 -313.5 296.3 -296.3C311.5 -279.1 331 -266.6 342.2 -248.6C353.4 -230.7 356.3 -207.2 368.9 -188C381.4 -168.7 403.7 -153.7 411.5 -133.7C419.3 -113.7 412.7 -88.7 413.8 -65.5C415 -42.4 423.8 -21.2 432.7 0L0 0Z" fill="#044c1e"></path><path d="M0 -378.6C18.7 -371.3 37.4 -364 57.4 -362.1C77.3 -360.2 98.6 -363.7 115.7 -356.2C132.9 -348.7 145.9 -330.3 163.7 -321.2C181.5 -312.1 204 -312.4 220.1 -303C236.2 -293.5 245.9 -274.3 259.2 -259.2C272.6 -244.2 289.6 -233.3 299.4 -217.6C309.2 -201.8 311.8 -181.3 322.8 -164.5C333.8 -147.6 353.2 -134.5 360.1 -117C366.9 -99.5 361.1 -77.6 362.1 -57.4C363.1 -37.1 370.8 -18.6 378.6 0L0 0Z" fill="#055524"></path><path d="M0 -324.5C16 -318.3 32 -312 49.2 -310.4C66.3 -308.7 84.5 -311.7 99.2 -305.3C113.9 -298.9 125 -283.1 140.3 -275.3C155.5 -267.6 174.9 -267.8 188.7 -259.7C202.5 -251.6 210.8 -235.1 222.2 -222.2C233.7 -209.3 248.3 -200 256.7 -186.5C265.1 -173 267.2 -155.4 276.7 -141C286.1 -126.5 302.8 -115.3 308.6 -100.3C314.5 -85.3 309.5 -66.5 310.4 -49.2C311.2 -31.8 317.9 -15.9 324.5 0L0 0Z" fill="#065f29"></path><path d="M0 -270.4C13.3 -265.2 26.7 -260 41 -258.7C55.2 -257.3 70.4 -259.8 82.7 -254.4C94.9 -249.1 104.2 -235.9 116.9 -229.4C129.6 -223 145.7 -223.2 157.2 -216.4C168.7 -209.7 175.6 -195.9 185.2 -185.2C194.7 -174.4 206.9 -166.6 213.9 -155.4C220.9 -144.2 222.7 -129.5 230.5 -117.5C238.4 -105.4 252.3 -96.1 257.2 -83.6C262.1 -71.1 257.9 -55.4 258.7 -41C259.4 -26.5 264.9 -13.3 270.4 0L0 0Z" fill="#06682e"></path><path d="M0 -216.3C10.7 -212.2 21.4 -208 32.8 -206.9C44.2 -205.8 56.3 -207.8 66.1 -203.5C75.9 -199.3 83.4 -188.7 93.5 -183.5C103.7 -178.4 116.6 -178.5 125.8 -173.1C135 -167.7 140.5 -156.7 148.1 -148.1C155.8 -139.5 165.5 -133.3 171.1 -124.3C176.7 -115.3 178.2 -103.6 184.4 -94C190.7 -84.4 201.8 -76.9 205.7 -66.9C209.7 -56.8 206.4 -44.3 206.9 -32.8C207.5 -21.2 211.9 -10.6 216.3 0L0 0Z" fill="#067234"></path><path d="M0 -162.2C8 -159.1 16 -156 24.6 -155.2C33.1 -154.4 42.3 -155.9 49.6 -152.6C56.9 -149.4 62.5 -141.5 70.1 -137.7C77.8 -133.8 87.4 -133.9 94.3 -129.8C101.2 -125.8 105.4 -117.6 111.1 -111.1C116.8 -104.6 124.1 -100 128.3 -93.2C132.5 -86.5 133.6 -77.7 138.3 -70.5C143 -63.3 151.4 -57.6 154.3 -50.1C157.2 -42.6 154.8 -33.2 155.2 -24.6C155.6 -15.9 158.9 -8 162.2 0L0 0Z" fill="#067d39"></path><path d="M0 -108.2C5.3 -106.1 10.7 -104 16.4 -103.5C22.1 -102.9 28.2 -103.9 33.1 -101.8C38 -99.6 41.7 -94.4 46.8 -91.8C51.8 -89.2 58.3 -89.3 62.9 -86.6C67.5 -83.9 70.3 -78.4 74.1 -74.1C77.9 -69.8 82.8 -66.7 85.6 -62.2C88.4 -57.7 89.1 -51.8 92.2 -47C95.4 -42.2 100.9 -38.4 102.9 -33.4C104.8 -28.4 103.2 -22.2 103.5 -16.4C103.7 -10.6 106 -5.3 108.2 0L0 0Z" fill="#06873f"></path><path d="M0 -54.1C2.7 -53 5.3 -52 8.2 -51.7C11 -51.5 14.1 -52 16.5 -50.9C19 -49.8 20.8 -47.2 23.4 -45.9C25.9 -44.6 29.1 -44.6 31.4 -43.3C33.7 -41.9 35.1 -39.2 37 -37C38.9 -34.9 41.4 -33.3 42.8 -31.1C44.2 -28.8 44.5 -25.9 46.1 -23.5C47.7 -21.1 50.5 -19.2 51.4 -16.7C52.4 -14.2 51.6 -11.1 51.7 -8.2C51.9 -5.3 53 -2.7 54.1 0L0 0Z" fill="#058c42"></path></g></svg>